<svg xmlns="http://www.w3.org/2000/svg" xmlns:xlink="http://www.w3.org/1999/xlink" viewBox="0 0 173.81 71.19"><defs><style>.cls-1,.cls-2{fill:none;}.cls-2{clip-rule:evenodd;}.cls-3{clip-path:url(#clip-path);}.cls-4{fill:url(#linear-gradient);}.cls-5{clip-path:url(#clip-path-2);}.cls-6{fill:url(#linear-gradient-2);}.cls-7{clip-path:url(#clip-path-3);}.cls-8{fill:url(#linear-gradient-3);}.cls-9{clip-path:url(#clip-path-4);}.cls-10{fill:url(#linear-gradient-4);}.cls-11{clip-path:url(#clip-path-5);}.cls-12{fill:url(#linear-gradient-5);}.cls-13{clip-path:url(#clip-path-6);}.cls-14{fill:url(#linear-gradient-6);}.cls-15{clip-path:url(#clip-path-7);}.cls-16{fill:url(#linear-gradient-7);}.cls-17{clip-path:url(#clip-path-8);}.cls-18{fill:url(#linear-gradient-8);}.cls-19{clip-path:url(#clip-path-9);}.cls-20{fill:url(#linear-gradient-9);}.cls-21{clip-path:url(#clip-path-10);}.cls-22{fill:#fff;}.cls-23{fill:#6acbd8;}</style><clipPath id="clip-path" transform="translate(0 0.04)"><path class="cls-1" d="M20.92,10.77A3.83,3.83,0,0,0,17.36,9a1.15,1.15,0,0,1,0-2.29,6.61,6.61,0,0,1,3.56,1V2.42A21.42,21.42,0,0,0,15.1,4.08a1,1,0,0,1-.22.14,5.43,5.43,0,0,0-2.29,2,5.21,5.21,0,0,0-.84,2.86,5.46,5.46,0,0,0,1.6,3.82,5.38,5.38,0,0,0,3.81,1.59,1.15,1.15,0,1,1,0,2.29,7.64,7.64,0,0,1-5.42-2.26,5.32,5.32,0,0,1-.55-.61,8.64,8.64,0,0,0-4.21,3,1.14,1.14,0,0,1-1.89-1.29A10.77,10.77,0,0,1,10,11.92a7.67,7.67,0,0,1-.41-4.31A21.6,21.6,0,0,0,8,38.46a2.73,2.73,0,0,0,.23.25,7.63,7.63,0,0,1,.69-4,9.09,9.09,0,0,1,.47-.87,10.68,10.68,0,0,1-2.47-5.17,1.14,1.14,0,0,1,2.26-.35,8.07,8.07,0,0,0,1.72,3.78,7.69,7.69,0,0,1,2.36-1.37,1.14,1.14,0,1,1,.78,2.14,5.41,5.41,0,0,0-2.57,8.2,5.17,5.17,0,0,0,.88,1,21.42,21.42,0,0,0,8.56,3.13v-3.9a8.72,8.72,0,0,1-3.8-.86A7.58,7.58,0,0,1,13.67,37a1.14,1.14,0,1,1,2-1,5.32,5.32,0,0,0,2.43,2.44,6.31,6.31,0,0,0,2.78.63V29.13c-2.65-2.36-5-1-5-1a1.14,1.14,0,1,1-1.11-2,6.43,6.43,0,0,1,6.09.2V20.94c-2.53-.36-3.82.77-5.19,1.95l-.36.3a.92.92,0,0,1-.35.3C12.79,25.35,10.08,27,3.69,24.91a1.14,1.14,0,1,1,.7-2.18c4.73,1.52,7,.65,8.7-.62a6.71,6.71,0,0,0-3.16-3,1.15,1.15,0,0,1,1-2.07,9.11,9.11,0,0,1,3.95,3.57,7.15,7.15,0,0,1,6.06-2Zm1,36.86A23.89,23.89,0,0,1,22,0,1.14,1.14,0,0,1,23.2,1.06v.09h0V46.49a1.15,1.15,0,0,1-1.14,1.15Z"/></clipPath><linearGradient id="linear-gradient" x1="11.6" y1="53.62" x2="11.6" y2="-5.59" gradientUnits="userSpaceOnUse"><stop offset="0" stop-color="#5d4e9f"/><stop offset="1" stop-color="#a75ca3"/></linearGradient><clipPath id="clip-path-2" transform="translate(0 0.04)"><path class="cls-1" d="M41.48,9.16A21.51,21.51,0,0,0,28.53,2.42v42.8A21.6,21.6,0,0,0,41.48,9.16M27.54,0a23.89,23.89,0,0,1-.07,47.63,1.15,1.15,0,0,1-1.22-1.06V46.5h0V1.14A1.15,1.15,0,0,1,27.39,0Z"/></clipPath><linearGradient id="linear-gradient-2" x1="37.87" y1="53.62" x2="37.87" y2="-5.59" xlink:href="#linear-gradient"/><clipPath id="clip-path-3" transform="translate(0 0.04)"><path class="cls-1" d="M27.27,8.84a1.15,1.15,0,0,1-1-1.26,1.14,1.14,0,0,1,1.26-1,17.36,17.36,0,0,1,0,34.51,1.15,1.15,0,1,1-.24-2.28,15.07,15.07,0,0,0,0-30"/></clipPath><linearGradient id="linear-gradient-3" x1="34.58" y1="53.62" x2="34.58" y2="-5.59" xlink:href="#linear-gradient"/><clipPath id="clip-path-4" transform="translate(0 0.04)"><path class="cls-1" d="M27.18,15.42a1.14,1.14,0,0,1,.41-2.25,10.84,10.84,0,0,1,0,21.3,1.14,1.14,0,0,1-.41-2.25,8.54,8.54,0,0,0,0-16.8"/></clipPath><linearGradient id="linear-gradient-4" x1="31.3" y1="53.62" x2="31.3" y2="-5.59" xlink:href="#linear-gradient"/><clipPath id="clip-path-5" transform="translate(0 0.04)"><path class="cls-2" d="M40.53,14.88A2.57,2.57,0,1,1,38,17.45a2.57,2.57,0,0,1,2.57-2.57"/></clipPath><linearGradient id="linear-gradient-5" x1="40.53" y1="53.62" x2="40.53" y2="-5.59" xlink:href="#linear-gradient"/><clipPath id="clip-path-6" transform="translate(0 0.04)"><path class="cls-2" d="M33.06,27.44A2.57,2.57,0,1,1,30.49,30a2.57,2.57,0,0,1,2.57-2.57"/></clipPath><linearGradient id="linear-gradient-6" x1="33.06" y1="53.62" x2="33.06" y2="-5.59" xlink:href="#linear-gradient"/><clipPath id="clip-path-7" transform="translate(0 0.04)"><path class="cls-2" d="M41.38,37.63a2.58,2.58,0,1,1-2.57,2.58,2.58,2.58,0,0,1,2.57-2.58"/></clipPath><linearGradient id="linear-gradient-7" x1="41.38" y1="53.62" x2="41.38" y2="-5.59" xlink:href="#linear-gradient"/><clipPath id="clip-path-8" transform="translate(0 0.04)"><path class="cls-2" d="M34,.11a2.57,2.57,0,1,1-2.57,2.57A2.57,2.57,0,0,1,34,.11"/></clipPath><linearGradient id="linear-gradient-8" x1="34.01" y1="53.62" x2="34.01" y2="-5.59" xlink:href="#linear-gradient"/><clipPath id="clip-path-9" transform="translate(0 0.04)"><path class="cls-2" d="M27.39,11.72a2.58,2.58,0,1,1-2.57,2.57,2.57,2.57,0,0,1,2.57-2.57"/></clipPath><linearGradient id="linear-gradient-9" x1="27.39" y1="53.62" x2="27.39" y2="-5.59" xlink:href="#linear-gradient"/><clipPath id="clip-path-10" transform="translate(0 0.04)"><path class="cls-2" d="M27.39,37.15a2.57,2.57,0,1,1-2.57,2.57,2.57,2.57,0,0,1,2.57-2.57"/></clipPath></defs><title>logo_v1_black_1</title><g id="Layer_2" data-name="Layer 2"><g id="Layer_1-2" data-name="Layer 1"><g class="cls-3"><rect class="cls-4" width="23.2" height="47.68"/></g><g class="cls-5"><rect class="cls-6" x="26.24" y="0.04" width="23.25" height="47.68"/></g><g class="cls-7"><rect class="cls-8" x="26.19" y="6.54" width="16.78" height="34.64"/></g><g class="cls-9"><rect class="cls-10" x="26.15" y="13.1" width="10.29" height="21.52"/></g><g class="cls-11"><rect class="cls-12" x="37.96" y="14.92" width="5.14" height="5.14"/></g><g class="cls-13"><rect class="cls-14" x="30.49" y="27.48" width="5.14" height="5.14"/></g><g class="cls-15"><rect class="cls-16" x="38.81" y="37.67" width="5.14" height="5.14"/></g><g class="cls-17"><rect class="cls-18" x="31.44" y="0.15" width="5.14" height="5.14"/></g><g class="cls-19"><rect class="cls-20" x="24.82" y="11.76" width="5.14" height="5.14"/></g><g class="cls-21"><rect class="cls-20" x="24.82" y="37.19" width="5.14" height="5.14"/></g><path class="cls-22" d="M92.63,28.4H76.18V38.77H95.61v8H65.73V3.43H95.67v8.08H76.18v9.14H92.63Z" transform="translate(0 0.04)"/><path class="cls-22" d="M116,31.47h-5.66V46.81H99.87V3.43h17.07q7.71,0,12.06,3.43t4.35,9.67a14.13,14.13,0,0,1-1.83,7.5,13,13,0,0,1-5.73,4.82l9,17.51v.45h-11.2Zm-5.66-8h6.62a6,6,0,0,0,4.48-1.56,6.1,6.1,0,0,0,1.51-4.38,6.17,6.17,0,0,0-1.52-4.41,5.92,5.92,0,0,0-4.47-1.59h-6.62Z" transform="translate(0 0.04)"/><path class="cls-22" d="M150.13,32.09V46.81H139.67V3.43H157a20,20,0,0,1,8.8,1.84,13.77,13.77,0,0,1,5.93,5.21,14.22,14.22,0,0,1,2.1,7.67,12.53,12.53,0,0,1-4.54,10.14q-4.54,3.81-12.47,3.8Zm0-8.07H157a6.47,6.47,0,0,0,4.63-1.52,5.64,5.64,0,0,0,1.59-4.29,7,7,0,0,0-1.63-4.86,5.83,5.83,0,0,0-4.47-1.84h-7Z" transform="translate(0 0.04)"/><path class="cls-22" d="M13.78,62.52c0,5.7-2.81,8.63-6.62,8.63-4,0-6.4-3.52-6.4-8.37,0-5,2.64-8.53,6.63-8.53C11.53,54.25,13.78,57.91,13.78,62.52Zm-10.16.23c0,3.41,1.31,6,3.68,6s3.62-2.77,3.62-6.16c0-3.05-1.15-6-3.63-6S3.62,59.36,3.62,62.75Z" transform="translate(0 0.04)"/><path class="cls-22" d="M14.91,69.21l3.88-5.85c.5-.7,1-1.32,1.44-1.94v-.06H15.31V59.05h8.14v1.81l-3.79,5.7c-.49.69-1,1.38-1.45,2v0h5.35V70.9H14.91Z" transform="translate(0 0.04)"/><path class="cls-22" d="M35,64.89c0,4.48-2.72,6.26-5.23,6.26-2.93,0-5.12-2.25-5.12-6.1,0-4,2.29-6.24,5.28-6.24S35,61.2,35,64.89ZM27.37,65c0,2.2.85,4,2.44,4s2.37-1.86,2.37-4.07c0-1.82-.63-4-2.38-4S27.37,63.08,27.37,65Z" transform="translate(0 0.04)"/><path class="cls-22" d="M37.14,62.52c0-1.36,0-2.43-.09-3.47h2.37l.13,1.67h.06a3.73,3.73,0,0,1,3.29-1.91c1.93,0,3.65,1.39,3.65,4.84V70.9H43.83V64c0-1.55-.49-2.8-1.89-2.8A2.11,2.11,0,0,0,40,62.83a3.5,3.5,0,0,0-.13,1V70.9H37.14Z" transform="translate(0 0.04)"/><path class="cls-22" d="M51.31,65.77a2.94,2.94,0,0,0,3.17,3.17,7.15,7.15,0,0,0,2.76-.51l.4,2a8.69,8.69,0,0,1-3.58.69c-3.41,0-5.36-2.32-5.36-6,0-3.46,1.84-6.34,5.08-6.34s4.44,2.89,4.44,5.66a7.71,7.71,0,0,1-.09,1.3Zm4.36-2c0-1.34-.48-2.93-2.07-2.93s-2.19,1.66-2.29,2.93Z" transform="translate(0 0.04)"/><path class="cls-22" d="M65.11,70.9V61.18h-1.5V59.05h1.5v-.53a5.58,5.58,0,0,1,1.28-3.89,3.85,3.85,0,0,1,2.79-1.12,5,5,0,0,1,1.75.29L70.7,56a2.84,2.84,0,0,0-1.13-.21c-1.32,0-1.75,1.22-1.75,2.62v.62h2.31v2.13h-2.3V70.9Z" transform="translate(0 0.04)"/><path class="cls-22" d="M81.19,64.89c0,4.48-2.72,6.26-5.23,6.26-2.92,0-5.12-2.25-5.12-6.1,0-4,2.29-6.24,5.28-6.24S81.19,61.2,81.19,64.89ZM73.61,65c0,2.2.85,4,2.44,4s2.37-1.86,2.37-4.07c0-1.82-.63-4-2.38-4S73.61,63.08,73.61,65Z" transform="translate(0 0.04)"/><path class="cls-22" d="M83.38,62.72c0-1.44,0-2.63-.09-3.67h2.36l.11,2.12h.07a3.17,3.17,0,0,1,2.83-2.36,2.29,2.29,0,0,1,.62.06v2.75a3.09,3.09,0,0,0-.74-.07,2.44,2.44,0,0,0-2.36,2.2,5.5,5.5,0,0,0-.08,1V70.9H83.38Z" transform="translate(0 0.04)"/><path class="cls-22" d="M95.54,54.73a19.26,19.26,0,0,1,3.81-.34,6.48,6.48,0,0,1,4.21,1.07,3.6,3.6,0,0,1,1.45,3,3.76,3.76,0,0,1-2.49,3.56v.07a4,4,0,0,1,3,4.05,4.49,4.49,0,0,1-1.37,3.34c-1.05,1-2.77,1.54-5.43,1.54a21.11,21.11,0,0,1-3.21-.21Zm2.7,6.51h1.23c1.75,0,2.82-1,2.82-2.42s-1-2.29-2.66-2.29a5.91,5.91,0,0,0-1.39.12Zm0,7.54a6.41,6.41,0,0,0,1.28.08c1.72,0,3.19-.78,3.19-2.76s-1.49-2.75-3.27-2.75h-1.2Z" transform="translate(0 0.04)"/><path class="cls-22" d="M117.09,67.38c0,1.37,0,2.54.1,3.52h-2.37l-.14-1.63h-.06a3.7,3.7,0,0,1-3.26,1.88c-2,0-3.59-1.4-3.59-5V59.05h2.72v6.62c0,1.88.5,3.12,1.85,3.12a2.08,2.08,0,0,0,1.89-1.47,3,3,0,0,0,.15-1V59.05h2.71Z" transform="translate(0 0.04)"/><path class="cls-22" d="M119.77,68.24a5.27,5.27,0,0,0,2.57.79c1.14,0,1.69-.54,1.69-1.34s-.42-1.22-1.7-1.79c-2-.87-2.85-2.09-2.84-3.44a3.67,3.67,0,0,1,4-3.65,5.57,5.57,0,0,1,2.72.67l-.54,2a4.26,4.26,0,0,0-2.12-.62c-1,0-1.48.54-1.48,1.24s.46,1.09,1.77,1.69c1.88.81,2.77,1.93,2.78,3.6,0,2.23-1.59,3.69-4.29,3.69a6.15,6.15,0,0,1-3.11-.78Z" transform="translate(0 0.04)"/><path class="cls-22" d="M131.63,55.8a1.51,1.51,0,1,1-1.5-1.59A1.5,1.5,0,0,1,131.63,55.8Zm-2.86,15.1V59.05h2.72V70.9Z" transform="translate(0 0.04)"/><path class="cls-22" d="M134.31,62.52c0-1.36,0-2.43-.09-3.47h2.37l.14,1.67h.06a3.71,3.71,0,0,1,3.29-1.91c1.92,0,3.64,1.39,3.64,4.84V70.9H141V64c0-1.55-.48-2.8-1.89-2.8a2.11,2.11,0,0,0-2,1.66,3.5,3.5,0,0,0-.13,1V70.9h-2.72Z" transform="translate(0 0.04)"/><path class="cls-22" d="M148.48,65.77a2.94,2.94,0,0,0,3.17,3.17,7.12,7.12,0,0,0,2.76-.51l.4,2a8.69,8.69,0,0,1-3.58.69c-3.41,0-5.36-2.32-5.36-6,0-3.46,1.84-6.34,5.08-6.34s4.44,2.89,4.44,5.66a7.71,7.71,0,0,1-.09,1.3Zm4.36-2c0-1.34-.48-2.93-2.07-2.93s-2.19,1.66-2.29,2.93Z" transform="translate(0 0.04)"/><path class="cls-22" d="M157.36,68.24a5.35,5.35,0,0,0,2.58.79c1.14,0,1.69-.54,1.69-1.34s-.43-1.22-1.7-1.79c-2-.87-2.85-2.09-2.85-3.44a3.67,3.67,0,0,1,4-3.65,5.61,5.61,0,0,1,2.73.67l-.55,2a4.22,4.22,0,0,0-2.11-.62c-1,0-1.48.54-1.48,1.24s.46,1.09,1.77,1.69c1.87.81,2.77,1.93,2.78,3.6,0,2.23-1.59,3.69-4.3,3.69a6.09,6.09,0,0,1-3.1-.78Z" transform="translate(0 0.04)"/><path class="cls-22" d="M166.21,68.24a5.35,5.35,0,0,0,2.58.79c1.14,0,1.69-.54,1.69-1.34s-.42-1.22-1.7-1.79c-2-.87-2.85-2.09-2.85-3.44a3.68,3.68,0,0,1,4-3.65,5.57,5.57,0,0,1,2.72.67l-.55,2A4.19,4.19,0,0,0,170,60.9c-1,0-1.48.54-1.48,1.24s.46,1.09,1.77,1.69c1.88.81,2.77,1.93,2.78,3.6,0,2.23-1.59,3.69-4.29,3.69a6.12,6.12,0,0,1-3.11-.78Z" transform="translate(0 0.04)"/><path class="cls-23" d="M61.33,45.35c0,2.84-2.33,4.82-6,4.82a10.08,10.08,0,0,1-5.81-1.81l1.56-3a5.52,5.52,0,0,0,4,1.83c1.62,0,2.52-.67,2.52-1.83S56.66,43.6,55,43.6H52.53V41.54L56,38.23H50.3l0-3H60.6v2.23l-4,3.71.73.1C59.69,41.66,61.33,43.09,61.33,45.35Z" transform="translate(0 0.04)"/></g></g></svg>