<?xml version="1.0" encoding="iso-8859-1"?>
<!-- Generator: Adobe Illustrator 19.0.0, SVG Export Plug-In . SVG Version: 6.00 Build 0)  -->
<svg version="1.1" id="Capa_1" xmlns="http://www.w3.org/2000/svg" xmlns:xlink="http://www.w3.org/1999/xlink" x="0px" y="0px"
	 viewBox="0 0 511.999 511.999" style="enable-background:new 0 0 511.999 511.999;" xml:space="preserve">
<g>
	<g>
		<rect x="140.578" y="33.268" width="234.714" height="14.982"/>
	</g>
</g>
<g>
	<g>
		<rect x="390.274" y="33.268" width="14.982" height="14.982"/>
	</g>
</g>
<g>
	<g>
		<rect x="252.702" y="435.028" width="14.982" height="75.907"/>
	</g>
</g>
<g>
	<g>
		<rect x="441.701" y="435.028" width="14.982" height="75.907"/>
	</g>
</g>
<g>
	<g>
		<path d="M416.509,321.909c14.894-15.794,24.038-37.066,24.038-60.436V0.062H0v297.137c0,20.653,16.802,37.454,37.454,37.454
			h80.085l3.962,8.329l-6.369,15.362l-28.613,10.175v40.137l28.612,10.176l6.369,15.362l-13.046,27.424l28.383,28.383l27.425-13.046
			l15.362,6.369l10.176,28.612h15.075v-0.999h7.491v-44.331c0-58.412,36.091-111.134,90.191-132.445
			c14.185,9.754,31.351,15.473,49.828,15.473c19.197,0,36.977-6.171,51.469-16.629c55.886,20.543,93.163,73.74,93.163,133.601
			v44.331h14.982v-44.331C511.999,403.156,474.102,346.473,416.509,321.909z M425.565,183.684H268.347
			c-8.537,0-15.481-6.945-15.481-15.481v-28.311h150.23c12.389,0,22.469,10.079,22.469,22.469V183.684z M14.982,15.044h410.583
			v51.437H14.982V15.044z M108.456,315.557l1.957,4.114H37.454c-12.391,0-22.473-10.082-22.473-22.473V81.462h410.583v50.956
			c-6.263-4.712-14.045-7.509-22.469-7.509H237.885v43.293c0,15.397,11.486,28.156,26.339,30.176v63.095
			c0,11.194,2.101,21.906,5.924,31.767l-14.673,6.979l-15.362-6.369l-10.176-28.612h-40.137l-10.176,28.612l-15.362,6.369
			l-27.424-13.046L108.456,315.557z M207.624,410.947c-11.341-1.131-20.227-10.727-20.227-22.36
			c0-12.391,10.082-22.473,22.473-22.473c6.87,0,13.233,3.109,17.454,8.325C219.211,385.657,212.572,397.932,207.624,410.947z
			 M236.802,362.566c-6.953-7.21-16.597-11.433-26.933-11.433c-20.653,0-37.454,16.801-37.454,37.454
			c0,18.278,13.163,33.53,30.506,36.798c-1.31,4.798-2.398,9.674-3.251,14.615c-24.164-4.78-42.236-26.168-42.236-51.412
			c0-28.913,23.523-52.436,52.436-52.436c14.24,0,27.509,5.646,37.332,15.67C243.562,355.241,240.092,358.828,236.802,362.566z
			 M258.626,342.064c-12.692-13.364-30.077-20.895-48.758-20.895c-37.175,0-67.418,30.243-67.418,67.418
			c0,32.829,23.772,60.584,55.376,66.306c-0.291,3.877-0.443,7.783-0.443,11.714v21.94l-5.872-16.513l-27.664-11.473l-23.894,11.367
			l-13.427-13.427l11.367-23.894l-11.473-27.664l-24.92-8.861v-18.991l24.92-8.861l11.473-27.664l-11.367-23.894l13.427-13.427
			l23.894,11.367l27.664-11.473l8.861-24.92h18.991l8.861,24.92l27.664,11.473l20.845-9.916c3.636,6.058,7.977,11.645,12.91,16.648
			C278.493,328.415,268.107,334.722,258.626,342.064z M352.385,334.654c-40.352,0-73.181-32.828-73.181-73.181v-62.808h146.359
			v62.808C425.565,301.825,392.737,334.654,352.385,334.654z"/>
	</g>
</g>
<g>
	<g>
		<rect x="310.9" y="240.156" width="17.287" height="14.982"/>
	</g>
</g>
<g>
	<g>
		<rect x="381.195" y="240.156" width="17.287" height="14.982"/>
	</g>
</g>
<g>
	<g>
		<rect x="89.641" y="33.268" width="14.982" height="14.982"/>
	</g>
</g>
<g>
	<g>
		<rect x="29.714" y="33.268" width="14.982" height="14.982"/>
	</g>
</g>
<g>
	<g>
		<rect x="59.677" y="33.268" width="14.982" height="14.982"/>
	</g>
</g>
<g>
	<g>
		
			<rect x="36.257" y="143.077" transform="matrix(0.8771 -0.4803 0.4803 0.8771 -66.5218 39.4088)" width="14.982" height="13.235"/>
	</g>
</g>
<g>
	<g>
		<polygon points="190.972,198.32 162.97,230.565 130.087,167.787 87.998,214.887 60.698,165.036 47.558,172.232 85.041,240.68 
			126.849,193.894 159.886,256.963 197.804,213.302 224.351,213.302 224.351,198.32 		"/>
	</g>
</g>
<g>
	<g>
		<rect x="84.517" y="119.413" width="139.829" height="14.982"/>
	</g>
</g>
<g>
	<g>
		<rect x="40.575" y="275.223" width="80.901" height="14.982"/>
	</g>
</g>
<g>
	<g>
		<rect x="297.447" y="416.051" width="79.902" height="14.982"/>
	</g>
</g>
<g>
	<g>
		<rect x="392.331" y="416.051" width="14.982" height="14.982"/>
	</g>
</g>
<g>
	<g>
		<rect x="297.447" y="445.515" width="14.982" height="14.982"/>
	</g>
</g>
<g>
	<g>
		<rect x="327.41" y="445.515" width="14.982" height="14.982"/>
	</g>
</g>
<g>
	<g>
		<rect x="357.374" y="445.515" width="49.939" height="14.982"/>
	</g>
</g>
<g>
	<g>
		<rect x="297.447" y="474.979" width="14.982" height="14.982"/>
	</g>
</g>
<g>
	<g>
		<rect x="327.41" y="474.979" width="49.939" height="14.982"/>
	</g>
</g>
<g>
	<g>
		<rect x="392.331" y="474.979" width="14.982" height="14.982"/>
	</g>
</g>
<g>
</g>
<g>
</g>
<g>
</g>
<g>
</g>
<g>
</g>
<g>
</g>
<g>
</g>
<g>
</g>
<g>
</g>
<g>
</g>
<g>
</g>
<g>
</g>
<g>
</g>
<g>
</g>
<g>
</g>
</svg>
