<svg height="512" viewBox="0 0 24 24" width="512" xmlns="http://www.w3.org/2000/svg"><path d="m7 18a3 3 0 1 1 -3-3 3 3 0 0 1 3 3zm13-9a3 3 0 1 0 -3-3 3 3 0 0 0 3 3zm-1 2h-14a2 2 0 0 1 0-4h6.59l-.3.29a1 1 0 0 0 0 1.42 1 1 0 0 0 1.42 0l2-2a1.15 1.15 0 0 0 .21-.33.94.94 0 0 0 0-.76 1.15 1.15 0 0 0 -.21-.33l-2-2a1 1 0 0 0 -1.42 1.42l.3.29h-6.59a4 4 0 0 0 0 8h14a2 2 0 0 1 0 4h-4.59l-1.7-1.71a1 1 0 0 0 -1.42 1.42l.3.29h-1.59a1 1 0 0 0 0 2h1.59l-.3.29a1 1 0 0 0 0 1.42 1 1 0 0 0 1.42 0l1.7-1.71h4.59a4 4 0 0 0 0-8z"/></svg>